<svg xmlns="http://www.w3.org/2000/svg" viewBox="0 0 1012.461 262">
  <defs>
    <mask id="mL" maskUnits="userSpaceOnUse" x="0" y="0" width="416.0" height="262.0">
      <rect width="416.0" height="262.0" fill="#fff"/>
      <path d="M 262.649 236.151 A 107.5 107.5 0 1 0 262.649 25.849 C 248.632 28.829 214.653 57.272 202.0 64.0 C 187.131 71.906 151.0 93.109 151.0 131.0 C 151.0 172.385 198.071 188.803 214.0 198.0 C 224.708 204.182 250.555 233.58 262.649 236.151 Z" fill="none" stroke="#000" stroke-width="63.0" pathLength="702.988" stroke-dasharray="110.0 592.988" stroke-dashoffset="-399.634"/>
    </mask>
    <mask id="mR" maskUnits="userSpaceOnUse" x="0" y="0" width="416.0" height="262.0">
      <rect width="416.0" height="262.0" fill="#fff"/>
      <path d="M 153.351 25.849 A 107.5 107.5 0 1 0 153.351 236.151 C 167.368 233.171 201.347 204.728 214.0 198.0 C 228.869 190.094 265.0 168.891 265.0 131.0 C 265.0 89.615 217.929 73.197 202.0 64.0 C 191.292 57.818 165.445 28.42 153.351 25.849 Z" fill="none" stroke="#000" stroke-width="63.0" pathLength="702.988" stroke-dasharray="110.0 592.988" stroke-dashoffset="-399.634"/>
    </mask>
  </defs>
  <g mask="url(#mL)">
    <path d="M 153.351 25.849 A 107.5 107.5 0 1 0 153.351 236.151 C 167.368 233.171 201.347 204.728 214.0 198.0 C 228.869 190.094 265.0 168.891 265.0 131.0 C 265.0 89.615 217.929 73.197 202.0 64.0 C 191.292 57.818 165.445 28.42 153.351 25.849 Z" fill="none" stroke="#1F4230" stroke-width="47.0"/>
    <path d="M 153.351 25.849 A 107.5 107.5 0 1 0 153.351 236.151 C 167.368 233.171 201.347 204.728 214.0 198.0 C 228.869 190.094 265.0 168.891 265.0 131.0 C 265.0 89.615 217.929 73.197 202.0 64.0 C 191.292 57.818 165.445 28.42 153.351 25.849 Z" fill="none" stroke="#FFFFFF" stroke-width="5" pathLength="702.988" stroke-dasharray="22.457 16.598" stroke-dashoffset="11.229"/>
  </g>
  <g mask="url(#mR)">
    <path d="M 262.649 236.151 A 107.5 107.5 0 1 0 262.649 25.849 C 248.632 28.829 214.653 57.272 202.0 64.0 C 187.131 71.906 151.0 93.109 151.0 131.0 C 151.0 172.385 198.071 188.803 214.0 198.0 C 224.708 204.182 250.555 233.58 262.649 236.151 Z" fill="none" stroke="#1F4230" stroke-width="47.0"/>
    <path d="M 262.649 236.151 A 107.5 107.5 0 1 0 262.649 25.849 C 248.632 28.829 214.653 57.272 202.0 64.0 C 187.131 71.906 151.0 93.109 151.0 131.0 C 151.0 172.385 198.071 188.803 214.0 198.0 C 224.708 204.182 250.555 233.58 262.649 236.151 Z" fill="none" stroke="#FFFFFF" stroke-width="5" pathLength="702.988" stroke-dasharray="22.457 16.598" stroke-dashoffset="11.229"/>
  </g>
  <polygon points="216,101 188,137 202,137 197,161 228,125 211,125" fill="#46B055"/>

  <path d="M522.6620425195875 151.90094469047102 521.8827459663684 134.46259561487722 563.2721550896534 91.5H579.7969435756092L545.4085917128612 128.0949010560218L537.2079777647023 137.0271414635657ZM509.6581987241027 170.5V91.5H524.2459324579604V170.5ZM564.7169246848968 170.5 534.3933627016816 134.49661422687436 544.0941962156638 123.78006642717784 581.8682623641262 170.5Z" fill="#1F4230"/>
  <path d="M640.9110558669598 170.5V91.5H655.5571631414326V170.5Z" fill="#1F4230"/>
  <path d="M725.8924844383884 170.5V91.5H758.178373540615Q773.9900433557337 91.5 782.9787245672169 98.97240647548853Q791.9674057786999 106.44481295097705 791.9674057786999 119.62380183332817Q791.9674057786999 128.27391161623981 787.9099003592332 134.53213132142082Q783.8523949397664 140.79035102660185 776.3235598928493 144.14152681861822Q768.7947248459323 147.49270261063455 758.3243073921525 147.49270261063455H733.9948346288439L740.5385917128611 140.86916509244062V170.5ZM777.5032326344801 170.5 757.5022215168312 141.81969232913195H773.2370100027871L793.3654716484468 170.5ZM740.5385917128611 142.42775819887896 733.9948346288439 135.3634955560373H757.7123515840326Q767.3694294075748 135.3634955560373 772.2816386918955 131.2101545322226Q777.1938479762163 127.05681350840791 777.1938479762163 119.62380183332817Q777.1938479762163 112.09252640054505 772.2816386918955 107.98831725558206Q767.3694294075748 103.88410811061907 757.7123515840326 103.88410811061907H733.9948346288439L740.5385917128611 96.72158171007402Z" fill="#1F4230"/>
  <path d="M857.3710558669598 170.5V91.5H872.0171631414325V170.5Z" fill="#1F4230"/>
  <path d="M942.3524844383883 170.5V91.5H954.4203943823355L1003.9325942213 152.3514313585829H997.9025291876992V91.5H1012.4610761512495V170.5H1000.3931662073022L950.8809663683378 109.64856864141711H956.9110314019384V170.5Z" fill="#1F4230"/>
</svg>
