<svg xmlns="http://www.w3.org/2000/svg" viewBox="0 0 512 512">
  <rect width="512" height="512" fill="#FFFFFF"/>
  <g transform="translate(96,155.2) scale(0.7692307692)">
    <defs>
      <mask id="mL2" maskUnits="userSpaceOnUse" x="0" y="0" width="416.0" height="262.0">
        <rect width="416.0" height="262.0" fill="#fff"/>
        <path d="M 262.649 236.151 A 107.5 107.5 0 1 0 262.649 25.849 C 248.632 28.829 214.653 57.272 202.0 64.0 C 187.131 71.906 151.0 93.109 151.0 131.0 C 151.0 172.385 198.071 188.803 214.0 198.0 C 224.708 204.182 250.555 233.58 262.649 236.151 Z" fill="none" stroke="#000" stroke-width="63.0" pathLength="702.988" stroke-dasharray="110.0 592.988" stroke-dashoffset="-399.634"/>
      </mask>
      <mask id="mR2" maskUnits="userSpaceOnUse" x="0" y="0" width="416.0" height="262.0">
        <rect width="416.0" height="262.0" fill="#fff"/>
        <path d="M 153.351 25.849 A 107.5 107.5 0 1 0 153.351 236.151 C 167.368 233.171 201.347 204.728 214.0 198.0 C 228.869 190.094 265.0 168.891 265.0 131.0 C 265.0 89.615 217.929 73.197 202.0 64.0 C 191.292 57.818 165.445 28.42 153.351 25.849 Z" fill="none" stroke="#000" stroke-width="63.0" pathLength="702.988" stroke-dasharray="110.0 592.988" stroke-dashoffset="-399.634"/>
      </mask>
    </defs>
    <g mask="url(#mL2)">
      <path d="M 153.351 25.849 A 107.5 107.5 0 1 0 153.351 236.151 C 167.368 233.171 201.347 204.728 214.0 198.0 C 228.869 190.094 265.0 168.891 265.0 131.0 C 265.0 89.615 217.929 73.197 202.0 64.0 C 191.292 57.818 165.445 28.42 153.351 25.849 Z" fill="none" stroke="#1F4230" stroke-width="47.0"/>
      <path d="M 153.351 25.849 A 107.5 107.5 0 1 0 153.351 236.151 C 167.368 233.171 201.347 204.728 214.0 198.0 C 228.869 190.094 265.0 168.891 265.0 131.0 C 265.0 89.615 217.929 73.197 202.0 64.0 C 191.292 57.818 165.445 28.42 153.351 25.849 Z" fill="none" stroke="#FFFFFF" stroke-width="5" pathLength="702.988" stroke-dasharray="22.457 16.598" stroke-dashoffset="11.229"/>
    </g>
    <g mask="url(#mR2)">
      <path d="M 262.649 236.151 A 107.5 107.5 0 1 0 262.649 25.849 C 248.632 28.829 214.653 57.272 202.0 64.0 C 187.131 71.906 151.0 93.109 151.0 131.0 C 151.0 172.385 198.071 188.803 214.0 198.0 C 224.708 204.182 250.555 233.58 262.649 236.151 Z" fill="none" stroke="#1F4230" stroke-width="47.0"/>
      <path d="M 262.649 236.151 A 107.5 107.5 0 1 0 262.649 25.849 C 248.632 28.829 214.653 57.272 202.0 64.0 C 187.131 71.906 151.0 93.109 151.0 131.0 C 151.0 172.385 198.071 188.803 214.0 198.0 C 224.708 204.182 250.555 233.58 262.649 236.151 Z" fill="none" stroke="#FFFFFF" stroke-width="5" pathLength="702.988" stroke-dasharray="22.457 16.598" stroke-dashoffset="11.229"/>
    </g>
    <polygon points="216,101 188,137 202,137 197,161 228,125 211,125" fill="#46B055"/>
  </g>
</svg>
